<svg xmlns="http://www.w3.org/2000/svg" width="312.786" height="35.861" viewBox="0 0 312.786 35.861"><g id="Group_2481" data-name="Group 2481" transform="translate(-319.051 -43.184)"><g id="Group_1887" data-name="Group 1887" transform="translate(319.051 43.184)"><path id="Path_622" data-name="Path 622" d="M-739.646,299.126l-2.31-4.011-6.084-10.566a4.983,4.983,0,0,0-4.376-2.772h-.092a4.988,4.988,0,0,0-4.38,2.779l-.118.2-1.524-2.653a5.562,5.562,0,0,0-4.864-3.125h-.094a5.566,5.566,0,0,0-4.867,3.131l-7.486,13-2.31,4.011,4.628-.013,8.291-.023h0l2.376,0c2.587.006,5.117.008,6.91.008h2.589l4.6.012h0l4.5.012Zm-33.884-2.68,7.491-13.009a3.028,3.028,0,0,1,2.6-1.788h0a3.029,3.029,0,0,1,2.6,1.788l2.3,4-4.393,7.649-.764,1.331Zm18.327-.019c-2.994,0-5.42-.011-5.42-.011l3.618-6.3,3.626,6.311Zm4.9,0-.766-1.332-4.4-7.66.895-1.558a2.443,2.443,0,0,1,2.111-1.436h0a2.443,2.443,0,0,1,2.111,1.436l6.084,10.567Z" transform="translate(778.15 -278.982)" fill="#1a1818"></path><path id="Path_623" data-name="Path 623" d="M-749.056,324.9h-14.022l0,0c-1.357,0-2.7,0-3.951,0-3.435,0-6.105.006-6.105.006l-3.2.007,2.146,2.376,7.73,8.556a4.89,4.89,0,0,0,3.711,1.648h.077a4.892,4.892,0,0,0,3.714-1.652l2.887-3.191,1.453,1.606a4.221,4.221,0,0,0,3.212,1.416h.062a4.225,4.225,0,0,0,3.216-1.42l6.3-6.962,2.161-2.389Zm-3.222,1.432-3.791,4.191-3.791-4.191Zm-7.74,8.555a3.449,3.449,0,0,1-2.69,1.178h0a3.449,3.449,0,0,1-2.691-1.178l-7.73-8.556s2.668-.006,6.1-.006c1.359,0,2.837,0,4.318,0h.922l.869.961,3.887,4.3Zm10.829-1.589a2.8,2.8,0,0,1-2.185.947h0a2.8,2.8,0,0,1-2.186-.947l-1.548-1.712,3.888-4.3.866-.957h7.466Z" transform="translate(777.254 -301.633)" fill="#1a1818"></path></g><g id="Group_1888" data-name="Group 1888" transform="translate(366.963 52.475)"><g id="Group_1872" data-name="Group 1872" transform="translate(243.398 0.315)"><path id="Path_638" data-name="Path 638" d="M-488.657,380.445l.756-.171a2.421,2.421,0,0,0,1.96-2.418c0-2.521-3.135-2.793-4.482-2.793h-5.687l0,7.931h2.551v-2.127h2.715l1.731,2.127h3.291l-.163-.176C-487.587,381.44-488.657,380.445-488.657,380.445Zm-1.371-1.3H-493.6v-2.229h3.577c1.3,0,1.5.69,1.5,1.1S-488.723,379.15-490.027,379.15Z" transform="translate(496.109 -375.063)" fill="#1a1818"></path><path id="Path_639" data-name="Path 639" d="M-466.821,375.063l-3.327,5.568-3.16-5.568h-2.374l4.151,7.148a1.5,1.5,0,0,0,1.346.937,1.584,1.584,0,0,0,1.372-.943l4.257-7.142Z" transform="translate(486.033 -375.063)" fill="#1a1818"></path></g><g id="Group_1873" data-name="Group 1873" transform="translate(166.705 0)"><path id="Path_640" data-name="Path 640" d="M-639.073,389.9l3.313-4.365,3.655-.015c.771,0,1.687-.008,2.193.035a16.952,16.952,0,0,1-1.115-1.423l-2.714-3.682-7.164,9.458-6.566-.007,10.219-13.516a4.322,4.322,0,0,1,3.581-1.941,4.214,4.214,0,0,1,3.574,1.911l10.112,13.546Z" transform="translate(647.47 -374.443)" fill="#1a1818"></path></g><path id="Path_641" data-name="Path 641" d="M-898.1,390.232c-8,0-12.023-2.425-12.023-7.841s4.024-7.818,12.023-7.818,12.047,2.4,12.047,7.818S-890.1,390.232-898.1,390.232Zm0-11.241c-4.819,0-6.457.386-6.457,3.4,0,2.991,1.638,3.422,6.457,3.422,4.843,0,6.481-.431,6.481-3.422C-891.618,379.377-893.256,378.991-898.1,378.991Z" transform="translate(943.744 -374.507)" fill="#1a1818"></path><path id="Path_642" data-name="Path 642" d="M-852.666,381.824v8.136h-5.06V377.723a2.871,2.871,0,0,1,3.036-3.2,3.244,3.244,0,0,1,2.216.884l9.132,7.546V374.8h5.06v12.26a2.887,2.887,0,0,1-3.06,3.195,3.246,3.246,0,0,1-2.217-.907Z" transform="translate(917.896 -374.484)" fill="#1a1818"></path><path id="Path_643" data-name="Path 643" d="M-801.073,375.064h-10.982v.06h0v15.1h10.987c5.686,0,9.878-3.332,9.878-7.728C-791.195,378.123-795.339,375.064-801.073,375.064Zm0,10.81h-5.4v-6.391h5.4c2.433,0,4.337.952,4.337,3.014C-796.736,384.99-798.544,385.874-801.073,385.874Z" transform="translate(895.369 -374.749)" fill="#1a1818"></path><path id="Path_644" data-name="Path 644" d="M-675.7,390.223l-.021-15.154h5.566l.021,10.8h10.191l-3.3,4.351Z" transform="translate(828.111 -374.751)" fill="#1a1818"></path><path id="Path_645" data-name="Path 645" d="M-585.6,381.824v8.136h-5.06V377.723a2.871,2.871,0,0,1,3.036-3.2,3.243,3.243,0,0,1,2.216.884l9.132,7.546V374.8h5.06v12.26a2.887,2.887,0,0,1-3.06,3.195,3.246,3.246,0,0,1-2.217-.907Z" transform="translate(786.148 -374.484)" fill="#1a1818"></path><path id="Path_646" data-name="Path 646" d="M-533.983,375.064h-10.985l0,15.161h10.988c5.686,0,9.878-3.332,9.878-7.728C-524.1,378.123-528.25,375.064-533.983,375.064Zm0,10.81h-5.4v-6.391h5.4c2.433,0,4.337.952,4.337,3.014C-529.647,384.99-531.454,385.874-533.983,385.874Z" transform="translate(763.611 -374.749)" fill="#1a1818"></path><path id="Path_647" data-name="Path 647" d="M-747.867,385.874h-11.805v-1.428h11.805v-3.694h-11.805v-1.269h11.805v-4.419h-17.4v15.161h17.4Z" transform="translate(872.283 -374.749)" fill="#1a1818"></path><path id="Path_648" data-name="Path 648" d="M-703.109,388.979a24.063,24.063,0,0,0-3.71-3.58,4.842,4.842,0,0,0,3.927-4.828c0-4.487-4.891-5.507-8.53-5.507h-12.013l.011,4.419h0v10.74l5.695,0v-3.762h5.268l3.06,3.762h7.444Zm-7.613-6.686h-7.357v-2.81h7.357c1.325,0,2.047.408,2.047,1.382C-708.675,381.862-709.4,382.293-710.723,382.293Z" transform="translate(851.649 -374.749)" fill="#1a1818"></path><path id="Path_649" data-name="Path 649" d="M-948.242,374.72s-4.551,8.442-4.521,8.339c-.481-.928-3.624-6.706-3.624-6.706a2.935,2.935,0,0,0-3.042-1.9h0a2.941,2.941,0,0,0-3.042,1.9s-3.143,5.778-3.624,6.706c.03.1-4.52-8.339-4.52-8.339h-5.86c2.756,4.88,4.53,8.328,7.1,13.076,1.12,2,2.2,2.357,3.132,2.357a3.12,3.12,0,0,0,3.061-1.79s3.239-6.964,3.75-7.987c.51,1.023,3.75,7.987,3.75,7.987a3.119,3.119,0,0,0,3.061,1.79c.928,0,2.012-.355,3.132-2.357,2.574-4.748,4.348-8.2,7.1-13.076Z" transform="translate(976.477 -374.447)" fill="#1a1818"></path></g></g></svg>